# xmcd
#
# Track frame offsets:
#	150
#	29207
#	51984
#	74611
#	91831
#	111109
#	138053
#	160331
#	174592
#	194610
#	219552
#
# Disc length: 3392 seconds
#
# Revision: 0
# Processed by: cddbd v1.4PL0 Copyright (c) Steve Scherf et al.
# Submitted via: dBpowerAMP V4.0
#
DISCID=a50d3e0b
DTITLE=Dire Straits - On every Streer
DYEAR=1991
DGENRE=AlternRock
TTITLE0=Calling Elvis
TTITLE1=On every street
TTITLE2=When it comes to you
TTITLE3=Fade to back
TTITLE4=The bug
TTITLE5=You and your friend
TTITLE6=Heavy fuel
TTITLE7=Iron hand
TTITLE8=Ticket to heaven
TTITLE9=My parties
TTITLE10=Planet of new Orleans
EXTD=
EXTT0=
EXTT1=
EXTT2=
EXTT3=
EXTT4=
EXTT5=
EXTT6=
EXTT7=
EXTT8=
EXTT9=
EXTT10=
PLAYORDER=
